# xmcd CD database file
#
# Track frame offsets:
#	150
#	28765
#	41641
#	51868
#	64881
#	77623
#	91794
#	103686
#	114944
#	127206
#	140242
#	152985
#	166941
#	177307
#	190509
#	205019
#	220242
#	234143
#	246884
#	260984
#	273519
#	285137
#	297141
#
# Disc length: 4147 seconds
#
# Revision: 0
# Processed by: cddbd v1.5.2PL0 Copyright (c) Steve Scherf et al.
# Submitted via: CDex 1.70beta2
#
DISCID=4f103117
DTITLE=Ray Charles - What'd I say
DYEAR=1900
DGENRE=Blues
TTITLE0=What'd i say
TTITLE1=I've got a woman
TTITLE2=I'm moving on
TTITLE3=Baby won't you please come home
TTITLE4=You always miss the water (when the well runs dry)
TTITLE5=This love of mine
TTITLE6=Nobody cares
TTITLE7=Sentimental blues
TTITLE8=Tell me how do you feel
TTITLE9=Heartbreaker
TTITLE10=Greenbacks
TTITLE11=Late in the evening blues
TTITLE12=Ain't that fine
TTITLE13=Don't you know
TTITLE14=Funny but i still love you
TTITLE15=Sinner's prayer
TTITLE16=Come back baby
TTITLE17=Can anyone ask for more?
TTITLE18=I'm going down to the river
TTITLE19=Rocking chair blues
TTITLE20=How long, how long blues
TTITLE21=Mess around
TTITLE22=Someday
EXTD=
EXTT0=
EXTT1=
EXTT2=
EXTT3=
EXTT4=
EXTT5=
EXTT6=
EXTT7=
EXTT8=
EXTT9=
EXTT10=
EXTT11=
EXTT12=
EXTT13=
EXTT14=
EXTT15=
EXTT16=
EXTT17=
EXTT18=
EXTT19=
EXTT20=
EXTT21=
EXTT22=
PLAYORDER=
